<?xml version="1.0" encoding="UTF-8" standalone="no"?>
<!-- Created with Inkscape (http://www.inkscape.org/) -->

<svg
   width="512"
   height="512"
   viewBox="0 0 135.46666 135.46667"
   version="1.1"
   id="svg1"
   xmlns="http://www.w3.org/2000/svg"
   xmlns:svg="http://www.w3.org/2000/svg">
  <defs
     id="defs1" />
  <g
     id="layer1">
    <path
       id="path18-4-37-5-3-9"
       style="fill:#70de8c;fill-opacity:1;stroke:none;stroke-width:24.6172;stroke-dasharray:none;stroke-opacity:1"
       d="M 67.689446,0.5519704 A 66.409567,66.409567 0 0 0 1.2754804,66.965925 66.409567,66.409567 0 0 0 67.689446,133.37989 66.409567,66.409567 0 0 0 134.1034,66.965925 66.409567,66.409567 0 0 0 67.689446,0.5519704 Z m 2.635531,23.1580796 1.61553,0.7469 1.61554,0.73045 16.18694,16.135934 c 8.903867,8.876559 16.518923,16.626523 16.918043,17.224036 0.39813,0.59884 0.92786,1.720824 1.19108,2.480891 l 0.47709,1.378628 v 1.835984 1.819538 l -0.46063,1.35889 c -0.82258,2.398626 -2.16173,4.137545 -4.19974,5.457944 -3.19817,2.06959 -6.966539,2.220938 -10.541775,0.4409 l -1.08909,-0.526447 -6.886261,-6.869154 c -3.786144,-3.771667 -7.140272,-7.549583 -7.226477,-7.549583 -0.06581,0 0.03285,19.419981 0.03285,33.360306 v 9.827793 l -0.424451,1.37864 c -1.602368,5.18879 -7.2143,8.32838 -12.395531,6.95437 -3.776601,-1.01671 -6.874744,-4.28958 -7.583143,-8.02537 -0.131605,-0.74689 -0.230322,5.46188 -0.230322,-10.609895 V 59.005711 l -6.937258,6.869482 -6.937261,6.869148 -1.395086,0.681091 c -4.152023,1.98404 -8.439935,1.345739 -11.783205,-1.750437 -3.35775,-3.10933 -4.1744,-7.833535 -2.12553,-12.15698 L 28.79118,58.106471 44.502018,42.344636 C 53.142008,33.67504 60.77319,26.16296 61.453953,25.64737 c 0.681092,-0.51657 1.786631,-1.15818 2.464431,-1.42799 l 1.240441,-0.49354 h 2.582877 z" />
  </g>
</svg>
