<?xml version="1.0" encoding="UTF-8" standalone="no"?>
<!-- Created with Inkscape (http://www.inkscape.org/) -->

<svg
   width="512"
   height="512"
   viewBox="0 0 135.46666 135.46667"
   version="1.1"
   id="svg1"
   sodipodi:docname="loader-circle-grey.svg"
   inkscape:version="1.3.2 (091e20e, 2023-11-25, custom)"
   xml:space="preserve"
   xmlns:inkscape="http://www.inkscape.org/namespaces/inkscape"
   xmlns:sodipodi="http://sodipodi.sourceforge.net/DTD/sodipodi-0.dtd"
   xmlns="http://www.w3.org/2000/svg"
   xmlns:svg="http://www.w3.org/2000/svg"><sodipodi:namedview
     id="namedview1"
     pagecolor="#ffffff"
     bordercolor="#000000"
     borderopacity="0.25"
     inkscape:showpageshadow="2"
     inkscape:pageopacity="0.0"
     inkscape:pagecheckerboard="0"
     inkscape:deskcolor="#d1d1d1"
     inkscape:zoom="0.80175781"
     inkscape:cx="-98.533496"
     inkscape:cy="159.02558"
     inkscape:window-width="1920"
     inkscape:window-height="1017"
     inkscape:window-x="-8"
     inkscape:window-y="-8"
     inkscape:window-maximized="1"
     inkscape:current-layer="svg1" /><defs
     id="defs1" /><g
     id="layer1"
     transform="rotate(90,67.68944,66.96593)"><path
       id="path18-4-37-5-3-9"
       style="fill:#a1a7b3;fill-opacity:1;stroke:none;stroke-width:24.6172;stroke-dasharray:none;stroke-opacity:1"
       d="M 1.2754143 66.965962 A 66.409567 66.409567 0 0 0 67.689447 133.38 A 66.409567 66.409567 0 0 0 134.10348 66.965962 A 66.409567 66.409567 0 0 0 67.689447 0.55192927 A 66.409567 66.409567 0 0 0 1.2754143 66.965962 z M 30.751651 68.229968 L 30.751651 66.966479 L 41.341185 66.966479 L 51.93072 66.966479 L 52.061461 68.292496 C 53.063442 78.416971 62.853187 84.934661 72.438512 81.85911 C 79.511181 79.589775 83.960005 72.785565 83.221316 65.366577 C 82.565866 58.783519 77.746435 53.2729 71.346589 51.788594 C 70.496014 51.591323 69.326714 51.380508 68.748298 51.320406 L 67.696682 51.211369 L 67.696682 40.61615 L 67.696682 30.021448 L 68.710057 30.021448 C 69.267286 30.021448 70.522214 30.108348 71.499034 30.214718 C 82.62938 31.427127 92.54251 37.492863 98.622443 46.811121 C 103.31802 54.007676 105.40825 62.943239 104.36421 71.356392 C 102.0506 90.000147 86.352117 103.92296 67.658442 103.91048 C 58.063806 103.90428 49.092387 100.29653 42.227436 93.684228 C 37.923145 89.538342 35.035657 85.199579 33.057453 79.905224 C 31.727251 76.345138 30.751651 71.405125 30.751651 68.229968 z " /></g></svg>
