<?xml version="1.0" encoding="UTF-8" standalone="no"?>
<!-- Created with Inkscape (http://www.inkscape.org/) -->

<svg
   width="512"
   height="512"
   viewBox="0 0 135.46666 135.46667"
   version="1.1"
   id="svg1"
   xml:space="preserve"
   xmlns="http://www.w3.org/2000/svg"
   xmlns:svg="http://www.w3.org/2000/svg"><defs
     id="defs1" /><g
     id="g184-0-9"
     transform="matrix(10.025336,0,0,10.025336,-6119.4547,-25704.844)"
     style="fill:#ffffff;fill-opacity:1"><g
       id="g186-2-4"
       transform="translate(0,-33.978714)"
       style="fill:#ffffff;fill-opacity:1"><path
         id="path181-6-5-3"
         style="fill:#ffffff;fill-opacity:1;stroke-width:0.0496094"
         d="m 619.19735,2601.156 c -0.55928,0.013 -0.83204,0.8592 -0.21601,1.1425 0.15043,0.065 0.30258,0.1354 0.45269,0.2124 v 10e-4 c 0.93097,0.5121 1.60524,1.3508 1.96112,2.1922 0.003,0.018 0.006,0.035 0.0103,0.052 0.40756,0.9946 0.45292,2.1007 0.12816,3.1253 h -8.69818 c -0.67907,-2.1506 0.30923,-4.3306 2.09445,-5.3531 v 0 c 0.14049,-0.071 0.28273,-0.1363 0.42323,-0.1969 0.71689,-0.3297 0.2518,-1.408 -0.48008,-1.1131 -0.14314,0.062 -0.28071,0.1325 -0.41393,0.2093 -2.38464,1.2855 -3.68681,4.1861 -2.70371,6.9825 0.13995,0.3981 0.51544,0.6649 0.93741,0.6661 h 8.9824 c 0.42138,-7e-4 0.79668,-0.2666 0.9369,-0.664 0.43383,-1.2337 0.43621,-2.5781 0.006,-3.8132 l -0.002,-0.01 c -0.43971,-1.3251 -1.33766,-2.2959 -2.47168,-2.9973 -0.21739,-0.1476 -0.44663,-0.2781 -0.69195,-0.3845 -0.004,0 -0.007,0 -0.0109,0 -0.003,0 -0.005,0 -0.008,0 v 0 c -0.083,-0.031 -0.16238,-0.044 -0.23668,-0.042 z" /><path
         style="fill:#ffffff;fill-opacity:1;stroke-width:0.0496094"
         d="m 616.58573,2606.4522 8e-5,-6.1739 a 0.59637096,0.59637096 0 1 1 1.19274,0 l -8e-5,6.1739 a 0.59637096,0.59637096 0 1 1 -1.19274,0 z"
         id="path1-91-4-4-9" /></g></g></svg>
