<?xml version="1.0" encoding="UTF-8" standalone="no"?>
<!-- Created with Inkscape (http://www.inkscape.org/) -->

<svg
   width="512"
   height="512"
   viewBox="0 0 135.46666 135.46667"
   version="1.1"
   id="svg1"
   xml:space="preserve"
   xmlns="http://www.w3.org/2000/svg"
   xmlns:svg="http://www.w3.org/2000/svg"><defs
     id="defs1" /><g
     style="fill:#ffffff;fill-opacity:1"
     id="g179-3-4"
     transform="matrix(0.55877515,0,0,0.55877515,-3.5198152,0.17356624)"><path
       style="fill:#ffffff;fill-opacity:1"
       d="m 235.28,107.81 a 12.008874,12.008874 0 0 0 -22.19,9.19 92.47,92.47 0 0 1 2.58,63 H 40.34 A 92.23,92.23 0 0 1 128,60 h 0.84 a 91.43,91.43 0 0 1 34.2,6.91 12,12 0 0 0 9.14,-22.19 A 116.07,116.07 0 0 0 18.57,190.58 20.09,20.09 0 0 0 37.46,204 h 181.07 a 20.06,20.06 0 0 0 18.88,-13.38 116.39,116.39 0 0 0 -2.13,-82.81 z"
       id="path181-4-0" /><path
       style="fill:#ffffff;fill-opacity:1"
       d="m 119.51,143.51 88,-88 a 12.020815,12.020815 0 1 1 17,17 l -88,88 a 12.020815,12.020815 0 1 1 -17,-17 z"
       id="path1-91-7-8" /></g></svg>
